# xmcd
#
# Track frame offsets:
# 150
# 11802
# 25576
# 36065
# 46654
# 56836
# 68295
# 79558
# 91094
# 102120
# 113223
# 123519
# 135421
# 145804
# 156437
# 167707
# 178412
# 190143
# 199956
# 212616
# 223875
# 232558
# 244436
# 255986
# 265316
# 276265
# 287207
# 298003
# 308315
# 320029
#
# Disc length: 4410 seconds
#
# Revision: 0
# Processed by: cddbd v1.4PL0 Copyright (c) Steve Scherf et al.
# Submitted via: Audion 2.5.0 (http://www.panic.com/audion/)
#
DISCID=ae11381e
DTITLE=Patsy Cline - The Ultimate Collection
DYEAR=1900
DGENRE=
TTITLE0=Walkin' After midnight
TTITLE1=A Church, A Courtroom, and then Goodbye
TTITLE2=Lovesick Blues
TTITLE3=Honky Tonk Merry Go Round
TTITLE4=Three Cigarettes in an Ashtray
TTITLE5=The Heart You Break May Be Your Own
TTITLE6=Cry Not for Me
TTITLE7=In Care of the Blues
TTITLE8=Don't Ever Leave Me Again
TTITLE9=A Stranger in my Arms
TTITLE10=Too Many Secrets
TTITLE11=Today Tomorrow and Forever
TTITLE12=Pick Me Up On Your Way Down
TTITLE13=Got a Lot of Rhythm in My Soul
TTITLE14=Just Out of Reach
TTITLE15=I Can See an Angel Walking
TTITLE16=A Poor Man's Roses (Or a Rich Man's Gold)
TTITLE17=I'm Blue Again
TTITLE18=Just a Closer Walk With Thee
TTITLE19=Hungry for Love
TTITLE20=Ain't No Wheels on this Ship
TTITLE21=Never No More
TTITLE22=Let the Teardrops fall
TTITLE23=Love Me Honey Do
TTITLE24=There He Goes
TTITLE25=I Don't Wanna
TTITLE26=I Cried all the Way to the Altar
TTITLE27=How Can I Face Tomorrow
TTITLE28=I've Loved and Lost Again
TTITLE29=Stop Look and Listen
EXTD=
EXTT0=
EXTT1=
EXTT2=
EXTT3=
EXTT4=
EXTT5=
EXTT6=
EXTT7=
EXTT8=
EXTT9=
EXTT10=
EXTT11=
EXTT12=
EXTT13=
EXTT14=
EXTT15=
EXTT16=
EXTT17=
EXTT18=
EXTT19=
EXTT20=
EXTT21=
EXTT22=
EXTT23=
EXTT24=
EXTT25=
EXTT26=
EXTT27=
EXTT28=
EXTT29=
PLAYORDER=
